<?xml version="1.0" encoding="iso-8859-1"?>
<!-- Generator: Adobe Illustrator 16.0.0, SVG Export Plug-In . SVG Version: 6.00 Build 0)  -->
<!DOCTYPE svg PUBLIC "-//W3C//DTD SVG 1.1//EN" "http://www.w3.org/Graphics/SVG/1.1/DTD/svg11.dtd">
<svg version="1.1" id="Capa_1" xmlns="http://www.w3.org/2000/svg" xmlns:xlink="http://www.w3.org/1999/xlink" x="0px" y="0px"
	 width="597.006px" height="597.006px" viewBox="0 0 597.006 597.006" style="enable-background:new 0 0 597.006 597.006;"
	 xml:space="preserve">
<g>
	<path d="M33.199,120.564c0.612-28.152,24.174-50.184,52.632-49.572c28.458,0.612,51.102,23.868,50.49,52.02
		c-0.612,28.152-24.48,50.184-52.632,49.572C55.23,171.972,32.586,148.716,33.199,120.564z M557.988,415.242
		c-0.918,0-294.372,0-294.372,0L69,253.98v-46.818c0-16.524-13.464-29.682-29.682-29.682c-16.524,0-29.682,13.464-29.682,29.682
		v360.163c0,16.523,13.464,29.682,29.682,29.682c16.524,0,29.682-13.465,29.682-29.682V331.092l164.934,136.781
		c5.202,4.285,11.934,7.039,18.972,7.039h275.094v92.412c0,16.523,13.464,29.682,29.682,29.682
		c16.523,0,29.682-13.465,29.682-29.682v-122.4C587.671,428.705,574.207,415.242,557.988,415.242z M176.407,102.51
		c-3.672-8.874-5.814-18.36-5.814-28.458C170.593,33.048,203.641,0,244.645,0s74.052,33.048,74.052,74.052
		s-33.048,74.052-74.052,74.052c-8.874,0-17.442-1.53-25.398-4.59l-49.266,55.998L316.248,315.18
		c0.919,0.611,1.53,1.225,2.143,1.836l117.504-70.38c10.71-6.426,24.174-4.896,33.048,3.672l105.265,100.062
		c11.016,10.404,11.321,27.846,0.918,38.863c-10.404,11.016-27.847,11.322-38.862,0.918l-89.964-85.68
		c0,0-98.532,60.893-132.192,79.559c-22.95,12.547-44.982,2.754-50.49-1.836L100.212,238.986
		c-14.382-12.852-12.24-29.376-7.344-38.862c1.224-3.366,3.06-6.426,5.508-9.18L176.407,102.51z M221.389,74.052
		c0,12.852,10.404,23.256,23.256,23.256S267.9,86.904,267.9,74.052s-10.404-23.256-23.256-23.256
		C232.099,50.796,221.389,61.2,221.389,74.052z"/>
</g>
<g>
</g>
<g>
</g>
<g>
</g>
<g>
</g>
<g>
</g>
<g>
</g>
<g>
</g>
<g>
</g>
<g>
</g>
<g>
</g>
<g>
</g>
<g>
</g>
<g>
</g>
<g>
</g>
<g>
</g>
</svg>
